<svg width="20" height="20" viewBox="0 0 20 20" fill="none" xmlns="http://www.w3.org/2000/svg">
<path d="M9.99998 11.1667L5.91665 15.25C5.76387 15.4028 5.56942 15.4792 5.33331 15.4792C5.0972 15.4792 4.90276 15.4028 4.74998 15.25C4.5972 15.0972 4.52081 14.9028 4.52081 14.6667C4.52081 14.4306 4.5972 14.2361 4.74998 14.0833L8.83331 10L4.74998 5.91666C4.5972 5.76388 4.52081 5.56944 4.52081 5.33333C4.52081 5.09722 4.5972 4.90277 4.74998 4.74999C4.90276 4.59722 5.0972 4.52083 5.33331 4.52083C5.56942 4.52083 5.76387 4.59722 5.91665 4.74999L9.99998 8.83333L14.0833 4.74999C14.2361 4.59722 14.4305 4.52083 14.6666 4.52083C14.9028 4.52083 15.0972 4.59722 15.25 4.74999C15.4028 4.90277 15.4791 5.09722 15.4791 5.33333C15.4791 5.56944 15.4028 5.76388 15.25 5.91666L11.1666 10L15.25 14.0833C15.4028 14.2361 15.4791 14.4306 15.4791 14.6667C15.4791 14.9028 15.4028 15.0972 15.25 15.25C15.0972 15.4028 14.9028 15.4792 14.6666 15.4792C14.4305 15.4792 14.2361 15.4028 14.0833 15.25L9.99998 11.1667Z" fill="white"/>
</svg>
