<svg width="609" height="646" viewBox="0 0 609 646" fill="none" xmlns="http://www.w3.org/2000/svg">
<path d="M20.5389 370.595C-60.4864 277.49 129.953 278.676 48.6317 193.429C-32.6894 108.182 152.131 90.9842 223.102 34.0539C311.816 -37.1089 351.738 8.85043 387.223 120.042C422.709 231.234 515.859 97.0627 669.629 120.042C823.4 143.022 753.168 320.188 780.521 423.967C802.404 506.99 715.711 559.868 669.629 575.93C573.769 638.197 390.033 715.735 421.97 527.746C453.907 339.758 327.834 357.993 260.806 390.61C214.477 422.732 101.564 463.7 20.5389 370.595Z" fill="url(#paint0_linear_1_14)"/>
<defs>
<linearGradient id="paint0_linear_1_14" x1="226" y1="131.5" x2="434" y2="646" gradientUnits="userSpaceOnUse">
<stop stop-color="#8CDB7B"/>
<stop offset="0.552083" stop-color="#65B857"/>
<stop offset="1" stop-color="#3D8E3F"/>
</linearGradient>
</defs>
</svg>
